<svg xmlns="http://www.w3.org/2000/svg" viewBox="0 0 32 32" fill="none">
  <rect width="32" height="32" rx="6" fill="#18181b"/>
  <circle cx="16" cy="17" r="6" stroke="#fafafa" stroke-width="2" fill="none"/>
  <path d="M10 11h12a1 1 0 0 1 1 1v10a1 1 0 0 1-1 1H10a1 1 0 0 1-1-1V12a1 1 0 0 1 1-1z" stroke="#fafafa" stroke-width="1.5" fill="none"/>
  <path d="M12 11V9a1 1 0 0 1 1-1h6a1 1 0 0 1 1 1v2" stroke="#fafafa" stroke-width="1.5" fill="none"/>
  <circle cx="16" cy="17" r="2" fill="#dc2626"/>
</svg>
